<svg width="64" height="64" viewBox="0 0 64 64" fill="none" xmlns="http://www.w3.org/2000/svg">
  <!-- Background Circle -->
  <circle cx="32" cy="32" r="30" fill="#0891B2" stroke="#0E7490" stroke-width="2"/>
  
  <!-- Wrench Icon -->
  <g transform="translate(16, 16)">
    <!-- Wrench Handle -->
    <path d="M8 24C8 24 12 20 16 20C20 20 24 24 24 24" stroke="white" stroke-width="3" stroke-linecap="round" fill="none"/>
    
    <!-- Wrench Head -->
    <rect x="20" y="18" width="8" height="8" rx="1" fill="white"/>
    <rect x="22" y="20" width="4" height="4" rx="0.5" fill="#0891B2"/>
    
    <!-- Screwdriver -->
    <rect x="6" y="22" width="12" height="2" rx="1" fill="white"/>
    <rect x="4" y="20" width="4" height="6" rx="1" fill="white"/>
    
    <!-- Gear/Settings -->
    <circle cx="28" cy="12" r="3" fill="white"/>
    <circle cx="28" cy="12" r="1.5" fill="#0891B2"/>
    <rect x="26.5" y="9" width="3" height="1" rx="0.5" fill="#0891B2"/>
    <rect x="26.5" y="14" width="3" height="1" rx="0.5" fill="#0891B2"/>
    <rect x="29" y="11.5" width="1" height="3" rx="0.5" fill="#0891B2"/>
    <rect x="25" y="11.5" width="1" height="3" rx="0.5" fill="#0891B2"/>
  </g>
  
  <!-- Service Center Text -->
  <text x="32" y="58" text-anchor="middle" fill="white" font-family="Arial, sans-serif" font-size="6" font-weight="bold">SERVICE</text>
</svg> 